<?xml version="1.0" standalone="no"?>
<!DOCTYPE svg PUBLIC "-//W3C//DTD SVG 20010904//EN"
 "http://www.w3.org/TR/2001/REC-SVG-20010904/DTD/svg10.dtd">
<svg version="1.0" xmlns="http://www.w3.org/2000/svg"
 width="260.000000pt" height="260.000000pt" viewBox="0 0 260.000000 260.000000"
 preserveAspectRatio="xMidYMid meet">
<metadata>
Created by potrace 1.11, written by Peter Selinger 2001-2013
</metadata>
<g transform="translate(0.000000,260.000000) scale(0.100000,-0.100000)"
fill="#000000" stroke="none">
<path d="M50 1255 l0 -825 1215 0 1215 0 0 825 0 825 -1215 0 -1215 0 0 -825z
m2138 668 l3 -33 -935 0 -936 0 0 35 0 35 933 -2 932 -3 3 -32z m-1908 -683
l0 -560 -40 0 -40 0 0 560 0 560 40 0 40 0 0 -560z m2040 0 l0 -560 -40 0 -40
0 0 560 0 560 40 0 40 0 0 -560z m-1265 355 c109 -30 211 -133 246 -248 59
-189 -29 -393 -204 -473 -56 -26 -72 -29 -167 -29 -99 0 -110 2 -171 32 -80
40 -150 111 -187 191 -23 49 -27 70 -27 152 1 123 25 187 102 270 105 114 243
150 408 105z m475 -125 c0 -82 3 -150 6 -150 3 0 24 16 47 35 142 121 373 53
433 -128 24 -73 16 -181 -19 -240 -51 -87 -150 -147 -242 -147 -60 0 -135 30
-181 72 l-44 41 0 -47 c0 -46 0 -46 -35 -46 l-35 0 0 373 c0 206 3 377 7 380
3 4 19 7 35 7 l28 0 0 -150z m660 -900 l0 -30 -935 0 -935 0 0 30 0 30 935 0
935 0 0 -30z"/>
<path d="M834 1530 c-83 -26 -181 -125 -204 -208 -19 -68 -12 -172 14 -229 51
-110 146 -174 266 -181 135 -7 241 53 299 170 27 53 31 72 31 143 0 71 -4 90
-30 143 -56 110 -140 164 -265 168 -44 2 -94 -1 -111 -6z"/>
<path d="M1655 1333 c-79 -41 -124 -114 -125 -201 0 -126 92 -222 215 -222
122 0 215 96 215 220 0 88 -44 161 -122 201 -46 24 -140 25 -183 2z"/>
</g>
</svg>
